<svg xmlns="http://www.w3.org/2000/svg" viewBox="0 0 64 64">
  <defs>
    <linearGradient id="fav-grad" x1="0%" y1="0%" x2="100%" y2="100%">
      <stop offset="0%" stop-color="#3e97ff"/>
      <stop offset="100%" stop-color="#7239ea"/>
    </linearGradient>
  </defs>
  <rect width="64" height="64" rx="14" fill="#0f1b3d"/>
  <path d="M19 48V16h9.5c6.8 0 11.1 3.9 11.1 10.3 0 3.7-1.6 6.5-4.4 8.1l6 5.5h-9l-4.8-4.6h-2.6V48z" fill="url(#fav-grad)"/>
  <path d="M14 48V16h9.8c6.9 0 11.2 3.9 11.2 10 0 4-1.9 7-5.1 8.6l6.7 6.3h-9.3l-5.3-5h-3.1V48zM22.2 21.1h-3.3v7.3h3.3c2.4 0 3.9-1.4 3.9-3.6 0-2.2-1.5-3.7-3.9-3.7z" fill="#ffffff" opacity="0.92"/>
</svg>