<svg xmlns="http://www.w3.org/2000/svg" viewBox="0 0 220 60" role="img" aria-labelledby="title desc">
  <title id="title">Agenzia Plinio Logo</title>
  <desc id="desc">Stylized AP monogram with company name</desc>
  <defs>
    <linearGradient id="grad" x1="0%" y1="0%" x2="100%" y2="100%">
      <stop offset="0%" stop-color="#3e97ff"/>
      <stop offset="45%" stop-color="#4f6ff6"/>
      <stop offset="100%" stop-color="#7239ea"/>
    </linearGradient>
  </defs>
  <rect width="220" height="60" rx="14" fill="#0f1b3d" opacity="0.85"/>
  <g transform="translate(22 14)">
    <path d="M28 32V6h10c7.5 0 12 4.6 12 11.2 0 6.6-4.5 11.2-12 11.2h-6v9.6z" fill="url(#grad)"/>
    <path d="M8 32V6h9.8c7.1 0 11.6 4 11.6 10.5 0 4.2-1.9 7.3-5.2 9l7 6.5H22l-5.6-5.3h-4.4V32zM16.4 11.3h-4.4v7.9h4.4c2.9 0 4.7-1.6 4.7-3.9 0-2.4-1.8-4-4.7-4z" fill="#ffffff"/>
  </g>
  <text x="98" y="34" fill="#ffffff" font-family="'Segoe UI', Tahoma, Geneva, Verdana, sans-serif" font-size="16" font-weight="600">Agenzia Plinio</text>
  <text x="98" y="48" fill="#9fb3ff" font-family="'Segoe UI', Tahoma, Geneva, Verdana, sans-serif" font-size="12">Area Clienti</text>
</svg>